<svg width="20" height="16" viewBox="0 0 20 16" fill="none" xmlns="http://www.w3.org/2000/svg">
<path d="M18.0273 9.00391C18.5796 9.00391 19.0273 8.55619 19.0273 8.00391C19.0273 7.45162 18.5796 7.00391 18.0273 7.00391V9.00391ZM0.320235 7.2968C-0.0702895 7.68732 -0.0702895 8.32049 0.320235 8.71101L6.6842 15.075C7.07472 15.4655 7.70789 15.4655 8.09841 15.075C8.48893 14.6845 8.48893 14.0513 8.09841 13.6608L2.44156 8.00391L8.09841 2.34705C8.48893 1.95653 8.48893 1.32336 8.09841 0.932838C7.70789 0.542313 7.07472 0.542313 6.6842 0.932838L0.320235 7.2968ZM18.0273 7.00391L1.02734 7.00391V9.00391L18.0273 9.00391V7.00391Z" fill="black"/>
</svg>
